# xmcd
#
# Track frame offsets:
#	150
#	18007
#	36326
#	53837
#	72703
#	91740
#	109680
#	129153
#	145229
#	181657
#	196989
#
# Disc length: 2804 seconds
#
# Revision: 1
# Processed by: cddbd v1.5.1PL2 Copyright (c) Steve Scherf et al.
# Submitted via: audiograbber 1.83.01
#
DISCID=8d0af20b
DTITLE=Rick Vito - Talk That Talk
DYEAR=1900
DGENRE=
TTITLE0=Talk That Talk
TTITLE1=I Do Believe
TTITLE2=The Levee Broke Away
TTITLE3=Black Crow Blues
TTITLE4=Change Is Gonna Come
TTITLE5=Easy Does It
TTITLE6=The Lucky Devil
TTITLE7=Rick's Boogie Woogie
TTITLE8=Directly From My Heart To You
TTITLE9=Mississippi Stomp
TTITLE10=The Town That Time Forgot
EXTD=
EXTT0=
EXTT1=
EXTT2=
EXTT3=
EXTT4=
EXTT5=
EXTT6=
EXTT7=
EXTT8=
EXTT9=
EXTT10=
PLAYORDER=
